<svg xmlns="http://www.w3.org/2000/svg" xmlns:xlink="http://www.w3.org/1999/xlink" id="processonSvg1000" viewBox="12.611099243164062 70.36113166809082 881.6111602783203 1059.38889503479" width="881.6111602783203" height="1059.38889503479"><defs id="ProcessOnDefs1001"><marker id="ProcessOnMarker1015" markerUnits="userSpaceOnUse" orient="auto" markerWidth="16.23606797749979" markerHeight="10.550836550532098" viewBox="-1.0 -1.3763819204711736 16.23606797749979 10.550836550532098" refX="-1.0" refY="3.8990363547948754"><path id="ProcessOnPath1016" d="M12.0 3.8990363547948754L0.0 7.798072709589751V0.0Z" stroke="#323232" stroke-width="2.0" fill="#323232" transform="matrix(1.0,0.0,0.0,1.0,0.0,0.0)"/></marker><marker id="ProcessOnMarker1019" markerUnits="userSpaceOnUse" orient="auto" markerWidth="16.23606797749979" markerHeight="10.550836550532098" viewBox="-1.0 -1.3763819204711736 16.23606797749979 10.550836550532098" refX="-1.0" refY="3.8990363547948754"><path id="ProcessOnPath1020" d="M12.0 3.8990363547948754L0.0 7.798072709589751V0.0Z" stroke="#323232" stroke-width="2.0" fill="#323232" transform="matrix(1.0,0.0,0.0,1.0,0.0,0.0)"/></marker><marker id="ProcessOnMarker1023" markerUnits="userSpaceOnUse" orient="auto" markerWidth="16.23606797749979" markerHeight="10.550836550532098" viewBox="-1.0 -1.3763819204711736 16.23606797749979 10.550836550532098" refX="-1.0" refY="3.8990363547948754"><path id="ProcessOnPath1024" d="M12.0 3.8990363547948754L0.0 7.798072709589751V0.0Z" stroke="#323232" stroke-width="2.0" fill="#323232" transform="matrix(1.0,0.0,0.0,1.0,0.0,0.0)"/></marker><marker id="ProcessOnMarker1037" markerUnits="userSpaceOnUse" orient="auto" markerWidth="16.23606797749979" markerHeight="10.550836550532098" viewBox="-1.0 -1.3763819204711736 16.23606797749979 10.550836550532098" refX="15.23606797749979" refY="3.8990363547948754"><path id="ProcessOnPath1038" d="M12.0 3.8990363547948754L0.0 7.798072709589751V0.0Z" stroke="#323232" stroke-width="2.0" fill="#323232" transform="matrix(-1.0,1.2246467991473532E-16,-1.2246467991473532E-16,-1.0,14.23606797749979,7.798072709589751)"/></marker><marker id="ProcessOnMarker1101" markerUnits="userSpaceOnUse" orient="auto" markerWidth="16.23606797749979" markerHeight="10.550836550532098" viewBox="-1.0 -1.3763819204711736 16.23606797749979 10.550836550532098" refX="-1.0" refY="3.8990363547948754"><path id="ProcessOnPath1102" d="M12.0 3.8990363547948754L0.0 7.798072709589751V0.0Z" stroke="#323232" stroke-width="2.0" fill="#323232" transform="matrix(1.0,0.0,0.0,1.0,0.0,0.0)"/></marker><marker id="ProcessOnMarker1105" markerUnits="userSpaceOnUse" orient="auto" markerWidth="16.23606797749979" markerHeight="10.550836550532098" viewBox="-1.0 -1.3763819204711736 16.23606797749979 10.550836550532098" refX="-1.0" refY="3.8990363547948754"><path id="ProcessOnPath1106" d="M12.0 3.8990363547948754L0.0 7.798072709589751V0.0Z" stroke="#323232" stroke-width="2.0" fill="#323232" transform="matrix(1.0,0.0,0.0,1.0,0.0,0.0)"/></marker><marker id="ProcessOnMarker1109" markerUnits="userSpaceOnUse" orient="auto" markerWidth="16.23606797749979" markerHeight="10.550836550532098" viewBox="-1.0 -1.3763819204711736 16.23606797749979 10.550836550532098" refX="-1.0" refY="3.8990363547948754"><path id="ProcessOnPath1110" d="M12.0 3.8990363547948754L0.0 7.798072709589751V0.0Z" stroke="#323232" stroke-width="2.0" fill="#323232" transform="matrix(1.0,0.0,0.0,1.0,0.0,0.0)"/></marker><marker id="ProcessOnMarker1117" markerUnits="userSpaceOnUse" orient="auto" markerWidth="16.23606797749979" markerHeight="10.550836550532098" viewBox="-1.0 -1.3763819204711736 16.23606797749979 10.550836550532098" refX="-1.0" refY="3.8990363547948754"><path id="ProcessOnPath1118" d="M12.0 3.8990363547948754L0.0 7.798072709589751V0.0Z" stroke="#323232" stroke-width="2.0" fill="#323232" transform="matrix(1.0,0.0,0.0,1.0,0.0,0.0)"/></marker><marker id="ProcessOnMarker1129" markerUnits="userSpaceOnUse" orient="auto" markerWidth="16.23606797749979" markerHeight="10.550836550532098" viewBox="-1.0 -1.3763819204711736 16.23606797749979 10.550836550532098" refX="-1.0" refY="3.8990363547948754"><path id="ProcessOnPath1130" d="M12.0 3.8990363547948754L0.0 7.798072709589751V0.0Z" stroke="#323232" stroke-width="2.0" fill="#323232" transform="matrix(1.0,0.0,0.0,1.0,0.0,0.0)"/></marker><marker id="ProcessOnMarker1133" markerUnits="userSpaceOnUse" orient="auto" markerWidth="16.23606797749979" markerHeight="10.550836550532098" viewBox="-1.0 -1.3763819204711736 16.23606797749979 10.550836550532098" refX="-1.0" refY="3.8990363547948754"><path id="ProcessOnPath1134" d="M12.0 3.8990363547948754L0.0 7.798072709589751V0.0Z" stroke="#323232" stroke-width="2.0" fill="#323232" transform="matrix(1.0,0.0,0.0,1.0,0.0,0.0)"/></marker><marker id="ProcessOnMarker1137" markerUnits="userSpaceOnUse" orient="auto" markerWidth="16.23606797749979" markerHeight="10.550836550532098" viewBox="-1.0 -1.3763819204711736 16.23606797749979 10.550836550532098" refX="-1.0" refY="3.8990363547948754"><path id="ProcessOnPath1138" d="M12.0 3.8990363547948754L0.0 7.798072709589751V0.0Z" stroke="#323232" stroke-width="2.0" fill="#323232" transform="matrix(1.0,0.0,0.0,1.0,0.0,0.0)"/></marker><marker id="ProcessOnMarker1151" markerUnits="userSpaceOnUse" orient="auto" markerWidth="16.23606797749979" markerHeight="10.550836550532098" viewBox="-1.0 -1.3763819204711736 16.23606797749979 10.550836550532098" refX="15.23606797749979" refY="3.8990363547948754"><path id="ProcessOnPath1152" d="M12.0 3.8990363547948754L0.0 7.798072709589751V0.0Z" stroke="#323232" stroke-width="2.0" fill="#323232" transform="matrix(-1.0,1.2246467991473532E-16,-1.2246467991473532E-16,-1.0,14.23606797749979,7.798072709589751)"/></marker><marker id="ProcessOnMarker1215" markerUnits="userSpaceOnUse" orient="auto" markerWidth="16.23606797749979" markerHeight="10.550836550532098" viewBox="-1.0 -1.3763819204711736 16.23606797749979 10.550836550532098" refX="-1.0" refY="3.8990363547948754"><path id="ProcessOnPath1216" d="M12.0 3.8990363547948754L0.0 7.798072709589751V0.0Z" stroke="#323232" stroke-width="2.0" fill="#323232" transform="matrix(1.0,0.0,0.0,1.0,0.0,0.0)"/></marker><marker id="ProcessOnMarker1219" markerUnits="userSpaceOnUse" orient="auto" markerWidth="16.23606797749979" markerHeight="10.550836550532098" viewBox="-1.0 -1.3763819204711736 16.23606797749979 10.550836550532098" refX="-1.0" refY="3.8990363547948754"><path id="ProcessOnPath1220" d="M12.0 3.8990363547948754L0.0 7.798072709589751V0.0Z" stroke="#323232" stroke-width="2.0" fill="#323232" transform="matrix(1.0,0.0,0.0,1.0,0.0,0.0)"/></marker><marker id="ProcessOnMarker1223" markerUnits="userSpaceOnUse" orient="auto" markerWidth="16.23606797749979" markerHeight="10.550836550532098" viewBox="-1.0 -1.3763819204711736 16.23606797749979 10.550836550532098" refX="-1.0" refY="3.8990363547948754"><path id="ProcessOnPath1224" d="M12.0 3.8990363547948754L0.0 7.798072709589751V0.0Z" stroke="#323232" stroke-width="2.0" fill="#323232" transform="matrix(1.0,0.0,0.0,1.0,0.0,0.0)"/></marker><marker id="ProcessOnMarker1235" markerUnits="userSpaceOnUse" orient="auto" markerWidth="16.23606797749979" markerHeight="10.550836550532098" viewBox="-1.0 -1.3763819204711736 16.23606797749979 10.550836550532098" refX="-1.0" refY="3.8990363547948754"><path id="ProcessOnPath1236" d="M12.0 3.8990363547948754L0.0 7.798072709589751V0.0Z" stroke="#323232" stroke-width="2.0" fill="#323232" transform="matrix(1.0,0.0,0.0,1.0,0.0,0.0)"/></marker></defs><g id="ProcessOnG1002"><path id="ProcessOnPath1003" d="M12.611099243164062 70.36113166809082H894.2222595214844V1129.7500267028809H12.611099243164062V70.36113166809082Z" fill="none"/><g id="ProcessOnG1004"><g id="ProcessOnG1005" transform="matrix(1.0,0.0,0.0,1.0,175.38890075683594,315.7500057220459)" opacity="1.0"><path id="ProcessOnPath1006" d="M0.0 0.0L100.0 0.0L100.0 70.0L0.0 70.0Z" stroke="#323232" stroke-width="2.0" stroke-dasharray="none" opacity="1.0" fill="#ffffff"/><g id="ProcessOnG1007" transform="matrix(1.0,0.0,0.0,1.0,10.0,23.75)"><text id="ProcessOnText1008" fill="#000000" font-size="18" x="39.0" y="18.45" font-family="微软雅黑" font-weight="bold" font-style="normal" text-decoration="none" family="微软雅黑" text-anchor="middle" size="18">Topic</text></g></g><g id="ProcessOnG1009" transform="matrix(1.0,0.0,0.0,1.0,414.38890075683594,186.97224235534668)" opacity="1.0"><path id="ProcessOnPath1010" d="M0.0 0.0L156.4444580078125 0.0L156.4444580078125 42.4444580078125L0.0 42.4444580078125Z" stroke="#323232" stroke-width="2.0" stroke-dasharray="none" opacity="1.0" fill="#ffffff"/><g id="ProcessOnG1011" transform="matrix(1.0,0.0,0.0,1.0,10.0,9.97222900390625)"><text id="ProcessOnText1012" fill="#000000" font-size="18" x="67.22222900390625" y="18.45" font-family="微软雅黑" font-weight="bold" font-style="normal" text-decoration="none" family="微软雅黑" text-anchor="middle" size="18">Channel_1</text></g></g><g id="ProcessOnG1013"><path id="ProcessOnPath1014" d="M275.38890075683594 350.7500057220459C355.0311813645246 350.7500057220459 334.74662014914725 208.19447135925293 399.15283277933617 208.19447135925293" stroke="#323232" stroke-width="2.0" stroke-dasharray="none" fill="none" marker-end="url(#ProcessOnMarker1015)"/></g><g id="ProcessOnG1017"><path id="ProcessOnPath1018" d="M275.38890075683594 350.7500057220459C330.98918500028583 350.7500057220459 358.78861651338605 351.19447135925293 399.15283277933617 351.19447135925293" stroke="#323232" stroke-width="2.0" stroke-dasharray="none" fill="none" marker-end="url(#ProcessOnMarker1019)"/></g><g id="ProcessOnG1021"><path id="ProcessOnPath1022" d="M275.38890075683594 350.7500057220459C357.6143724036576 350.7500057220459 332.16342911001425 502.19447135925293 399.15283277933617 502.19447135925293" stroke="#323232" stroke-width="2.0" stroke-dasharray="none" fill="none" marker-end="url(#ProcessOnMarker1023)"/></g><g id="ProcessOnG1025" transform="matrix(1.0,0.0,0.0,1.0,414.38890075683594,229.41670036315918)" opacity="1.0"><path id="ProcessOnPath1026" d="M0.0 0.0L39.111114501953125 0.0L39.111114501953125 42.5555419921875L0.0 42.5555419921875Z" stroke="#323232" stroke-width="2.0" stroke-dasharray="none" opacity="1.0" fill="#ffffff"/></g><g id="ProcessOnG1027" transform="matrix(1.0,0.0,0.0,1.0,453.50001525878906,229.41670036315918)" opacity="1.0"><path id="ProcessOnPath1028" d="M0.0 0.0L39.111114501953125 0.0L39.111114501953125 42.5555419921875L0.0 42.5555419921875Z" stroke="#323232" stroke-width="2.0" stroke-dasharray="none" opacity="1.0" fill="#ffffff"/></g><g id="ProcessOnG1029" transform="matrix(1.0,0.0,0.0,1.0,492.6111297607422,229.41670036315918)" opacity="1.0"><path id="ProcessOnPath1030" d="M0.0 0.0L39.111114501953125 0.0L39.111114501953125 42.5555419921875L0.0 42.5555419921875Z" stroke="#323232" stroke-width="2.0" stroke-dasharray="none" opacity="1.0" fill="#ffffff"/></g><g id="ProcessOnG1031" transform="matrix(1.0,0.0,0.0,1.0,531.7222442626953,229.41670036315918)" opacity="1.0"><path id="ProcessOnPath1032" d="M0.0 0.0L39.111114501953125 0.0L39.111114501953125 42.5555419921875L0.0 42.5555419921875Z" stroke="#323232" stroke-width="2.0" stroke-dasharray="none" opacity="1.0" fill="#ffffff"/><g id="ProcessOnG1033" transform="matrix(1.0,0.0,0.0,1.0,10.0,10.02777099609375)"><text id="ProcessOnText1034" fill="#000000" font-size="18" x="8.555557250976562" y="18.45" font-family="微软雅黑" font-weight="bold" font-style="normal" text-decoration="none" family="微软雅黑" text-anchor="middle" size="18">A</text></g></g><g id="ProcessOnG1035"><path id="ProcessOnPath1036" d="M160.15283277933614 350.7500057220459C131.4777801513672 350.7500057220459 109.5222198486328 350.7500057220459 65.61109924316406 350.7500057220459" stroke="#323232" stroke-width="2.0" stroke-dasharray="none" fill="none" marker-start="url(#ProcessOnMarker1037)"/></g><g id="ProcessOnG1039" transform="matrix(1.0,0.0,0.0,1.0,32.61109924316406,315.7500057220459)" opacity="1.0"><path id="ProcessOnPath1040" d="M0.0 0.0L160.0 0.0L160.0 40.0L0.0 40.0Z" stroke="none" stroke-width="0.0" stroke-dasharray="none" opacity="1.0" fill="none"/><g id="ProcessOnG1041" transform="matrix(1.0,0.0,0.0,1.0,0.0,8.75)"><text id="ProcessOnText1042" fill="#000000" font-size="18" x="79.0" y="18.45" font-family="微软雅黑" font-weight="bold" font-style="normal" text-decoration="none" family="微软雅黑" text-anchor="middle" size="18">Message</text></g></g><g id="ProcessOnG1043" transform="matrix(1.0,0.0,0.0,1.0,92.61109924316406,350.7500057220459)" opacity="1.0"><path id="ProcessOnPath1044" d="M0.0 0.0L40.0 0.0L40.0 32.22223663330078L0.0 32.22223663330078Z" stroke="none" stroke-width="0.0" stroke-dasharray="none" opacity="1.0" fill="none"/><g id="ProcessOnG1045" transform="matrix(1.0,0.0,0.0,1.0,0.0,4.861118316650391)"><text id="ProcessOnText1046" fill="#000000" font-size="18" x="19.0" y="18.45" font-family="微软雅黑" font-weight="bold" font-style="normal" text-decoration="none" family="微软雅黑" text-anchor="middle" size="18">A</text></g></g><g id="ProcessOnG1047" transform="matrix(1.0,0.0,0.0,1.0,353.38890075683594,239.7500057220459)" opacity="1.0"><path id="ProcessOnPath1048" d="M0.0 0.0L40.0 0.0L40.0 32.22223663330078L0.0 32.22223663330078Z" stroke="none" stroke-width="0.0" stroke-dasharray="none" opacity="1.0" fill="none"/><g id="ProcessOnG1049" transform="matrix(1.0,0.0,0.0,1.0,0.0,4.861118316650391)"><text id="ProcessOnText1050" fill="#000000" font-size="18" x="19.0" y="18.45" font-family="微软雅黑" font-weight="bold" font-style="normal" text-decoration="none" family="微软雅黑" text-anchor="middle" size="18">A</text></g></g><g id="ProcessOnG1051" transform="matrix(1.0,0.0,0.0,1.0,353.38890075683594,318.5277690887451)" opacity="1.0"><path id="ProcessOnPath1052" d="M0.0 0.0L40.0 0.0L40.0 32.22223663330078L0.0 32.22223663330078Z" stroke="none" stroke-width="0.0" stroke-dasharray="none" opacity="1.0" fill="none"/><g id="ProcessOnG1053" transform="matrix(1.0,0.0,0.0,1.0,0.0,4.861118316650391)"><text id="ProcessOnText1054" fill="#000000" font-size="18" x="19.0" y="18.45" font-family="微软雅黑" font-weight="bold" font-style="normal" text-decoration="none" family="微软雅黑" text-anchor="middle" size="18">A</text></g></g><g id="ProcessOnG1055" transform="matrix(1.0,0.0,0.0,1.0,353.38890075683594,430.9722423553467)" opacity="1.0"><path id="ProcessOnPath1056" d="M0.0 0.0L40.0 0.0L40.0 32.22223663330078L0.0 32.22223663330078Z" stroke="none" stroke-width="0.0" stroke-dasharray="none" opacity="1.0" fill="none"/><g id="ProcessOnG1057" transform="matrix(1.0,0.0,0.0,1.0,0.0,4.861118316650391)"><text id="ProcessOnText1058" fill="#000000" font-size="18" x="19.0" y="18.45" font-family="微软雅黑" font-weight="bold" font-style="normal" text-decoration="none" family="微软雅黑" text-anchor="middle" size="18">A</text></g></g><g id="ProcessOnG1059" transform="matrix(1.0,0.0,0.0,1.0,414.38890075683594,329.9722423553467)" opacity="1.0"><path id="ProcessOnPath1060" d="M0.0 0.0L156.4444580078125 0.0L156.4444580078125 42.4444580078125L0.0 42.4444580078125Z" stroke="#323232" stroke-width="2.0" stroke-dasharray="none" opacity="1.0" fill="#ffffff"/><g id="ProcessOnG1061" transform="matrix(1.0,0.0,0.0,1.0,10.0,9.97222900390625)"><text id="ProcessOnText1062" fill="#000000" font-size="18" x="67.22222900390625" y="18.45" font-family="微软雅黑" font-weight="bold" font-style="normal" text-decoration="none" family="微软雅黑" text-anchor="middle" size="18">Channel_1</text></g></g><g id="ProcessOnG1063" transform="matrix(1.0,0.0,0.0,1.0,414.38890075683594,372.4167003631592)" opacity="1.0"><path id="ProcessOnPath1064" d="M0.0 0.0L39.111114501953125 0.0L39.111114501953125 42.5555419921875L0.0 42.5555419921875Z" stroke="#323232" stroke-width="2.0" stroke-dasharray="none" opacity="1.0" fill="#ffffff"/></g><g id="ProcessOnG1065" transform="matrix(1.0,0.0,0.0,1.0,453.50001525878906,372.4167003631592)" opacity="1.0"><path id="ProcessOnPath1066" d="M0.0 0.0L39.111114501953125 0.0L39.111114501953125 42.5555419921875L0.0 42.5555419921875Z" stroke="#323232" stroke-width="2.0" stroke-dasharray="none" opacity="1.0" fill="#ffffff"/></g><g id="ProcessOnG1067" transform="matrix(1.0,0.0,0.0,1.0,492.6111297607422,372.4167003631592)" opacity="1.0"><path id="ProcessOnPath1068" d="M0.0 0.0L39.111114501953125 0.0L39.111114501953125 42.5555419921875L0.0 42.5555419921875Z" stroke="#323232" stroke-width="2.0" stroke-dasharray="none" opacity="1.0" fill="#ffffff"/></g><g id="ProcessOnG1069" transform="matrix(1.0,0.0,0.0,1.0,531.7222442626953,372.4167003631592)" opacity="1.0"><path id="ProcessOnPath1070" d="M0.0 0.0L39.111114501953125 0.0L39.111114501953125 42.5555419921875L0.0 42.5555419921875Z" stroke="#323232" stroke-width="2.0" stroke-dasharray="none" opacity="1.0" fill="#ffffff"/><g id="ProcessOnG1071" transform="matrix(1.0,0.0,0.0,1.0,10.0,10.02777099609375)"><text id="ProcessOnText1072" fill="#000000" font-size="18" x="8.555557250976562" y="18.45" font-family="微软雅黑" font-weight="bold" font-style="normal" text-decoration="none" family="微软雅黑" text-anchor="middle" size="18">A</text></g></g><g id="ProcessOnG1073" transform="matrix(1.0,0.0,0.0,1.0,414.38890075683594,480.9722423553467)" opacity="1.0"><path id="ProcessOnPath1074" d="M0.0 0.0L156.4444580078125 0.0L156.4444580078125 42.4444580078125L0.0 42.4444580078125Z" stroke="#323232" stroke-width="2.0" stroke-dasharray="none" opacity="1.0" fill="#ffffff"/><g id="ProcessOnG1075" transform="matrix(1.0,0.0,0.0,1.0,10.0,9.97222900390625)"><text id="ProcessOnText1076" fill="#000000" font-size="18" x="67.22222900390625" y="18.45" font-family="微软雅黑" font-weight="bold" font-style="normal" text-decoration="none" family="微软雅黑" text-anchor="middle" size="18">Channel_1</text></g></g><g id="ProcessOnG1077" transform="matrix(1.0,0.0,0.0,1.0,414.38890075683594,523.4167003631592)" opacity="1.0"><path id="ProcessOnPath1078" d="M0.0 0.0L39.111114501953125 0.0L39.111114501953125 42.5555419921875L0.0 42.5555419921875Z" stroke="#323232" stroke-width="2.0" stroke-dasharray="none" opacity="1.0" fill="#ffffff"/></g><g id="ProcessOnG1079" transform="matrix(1.0,0.0,0.0,1.0,453.50001525878906,523.4167003631592)" opacity="1.0"><path id="ProcessOnPath1080" d="M0.0 0.0L39.111114501953125 0.0L39.111114501953125 42.5555419921875L0.0 42.5555419921875Z" stroke="#323232" stroke-width="2.0" stroke-dasharray="none" opacity="1.0" fill="#ffffff"/></g><g id="ProcessOnG1081" transform="matrix(1.0,0.0,0.0,1.0,492.6111297607422,523.4167003631592)" opacity="1.0"><path id="ProcessOnPath1082" d="M0.0 0.0L39.111114501953125 0.0L39.111114501953125 42.5555419921875L0.0 42.5555419921875Z" stroke="#323232" stroke-width="2.0" stroke-dasharray="none" opacity="1.0" fill="#ffffff"/></g><g id="ProcessOnG1083" transform="matrix(1.0,0.0,0.0,1.0,531.7222442626953,523.4167003631592)" opacity="1.0"><path id="ProcessOnPath1084" d="M0.0 0.0L39.111114501953125 0.0L39.111114501953125 42.5555419921875L0.0 42.5555419921875Z" stroke="#323232" stroke-width="2.0" stroke-dasharray="none" opacity="1.0" fill="#ffffff"/><g id="ProcessOnG1085" transform="matrix(1.0,0.0,0.0,1.0,10.0,10.02777099609375)"><text id="ProcessOnText1086" fill="#000000" font-size="18" x="8.555557250976562" y="18.45" font-family="微软雅黑" font-weight="bold" font-style="normal" text-decoration="none" family="微软雅黑" text-anchor="middle" size="18">A</text></g></g><g id="ProcessOnG1087" transform="matrix(1.0,0.0,0.0,1.0,669.3889007568359,283.58335304260254)" opacity="1.0"><path id="ProcessOnPath1088" d="M0.0 0.0L156.4444580078125 0.0L156.4444580078125 42.4444580078125L0.0 42.4444580078125Z" stroke="#323232" stroke-width="2.0" stroke-dasharray="none" opacity="1.0" fill="#ffffff"/><g id="ProcessOnG1089" transform="matrix(1.0,0.0,0.0,1.0,10.0,9.97222900390625)"><text id="ProcessOnText1090" fill="#000000" font-size="18" x="67.22222900390625" y="18.45" font-family="微软雅黑" font-weight="bold" font-style="normal" text-decoration="none" family="微软雅黑" text-anchor="middle" size="18">Consumer_3</text></g></g><g id="ProcessOnG1091" transform="matrix(1.0,0.0,0.0,1.0,669.3889007568359,187.0278263092041)" opacity="1.0"><path id="ProcessOnPath1092" d="M0.0 0.0L156.4444580078125 0.0L156.4444580078125 42.4444580078125L0.0 42.4444580078125Z" stroke="#323232" stroke-width="2.0" stroke-dasharray="none" opacity="1.0" fill="#ffffff"/><g id="ProcessOnG1093" transform="matrix(1.0,0.0,0.0,1.0,10.0,9.97222900390625)"><text id="ProcessOnText1094" fill="#000000" font-size="18" x="67.22222900390625" y="18.45" font-family="微软雅黑" font-weight="bold" font-style="normal" text-decoration="none" family="微软雅黑" text-anchor="middle" size="18">Consumer_2</text></g></g><g id="ProcessOnG1095" transform="matrix(1.0,0.0,0.0,1.0,669.3889007568359,90.36113166809082)" opacity="1.0"><path id="ProcessOnPath1096" d="M0.0 0.0L156.4444580078125 0.0L156.4444580078125 42.4444580078125L0.0 42.4444580078125Z" stroke="#323232" stroke-width="2.0" stroke-dasharray="none" opacity="1.0" fill="#ffffff"/><g id="ProcessOnG1097" transform="matrix(1.0,0.0,0.0,1.0,10.0,9.97222900390625)"><text id="ProcessOnText1098" fill="#000000" font-size="18" x="67.22222900390625" y="18.45" font-family="微软雅黑" font-weight="bold" font-style="normal" text-decoration="none" family="微软雅黑" text-anchor="middle" size="18">Consumer_1</text></g></g><g id="ProcessOnG1099"><path id="ProcessOnPath1100" d="M570.8333587646484 208.19447135925293C626.0375637720194 208.19447135925293 614.1846957494649 111.58336067199707 654.1528327793361 111.58336067199707" stroke="#323232" stroke-width="2.0" stroke-dasharray="none" fill="none" marker-end="url(#ProcessOnMarker1101)"/></g><g id="ProcessOnG1103"><path id="ProcessOnPath1104" d="M570.8333587646484 208.19447135925293C610.2555818312383 208.19447135925293 629.9666776902461 208.25005531311035 654.1528327793361 208.25005531311035" stroke="#323232" stroke-width="2.0" stroke-dasharray="none" fill="none" marker-end="url(#ProcessOnMarker1105)"/></g><g id="ProcessOnG1107"><path id="ProcessOnPath1108" d="M570.8333587646484 208.19447135925293C626.0375637720194 208.19447135925293 614.1846957494649 304.8055820465088 654.1528327793361 304.8055820465088" stroke="#323232" stroke-width="2.0" stroke-dasharray="none" fill="none" marker-end="url(#ProcessOnMarker1109)"/></g><g id="ProcessOnG1111" transform="matrix(1.0,0.0,0.0,1.0,604.3889007568359,104.58335304260254)" opacity="1.0"><path id="ProcessOnPath1112" d="M0.0 0.0L40.0 0.0L40.0 32.22223663330078L0.0 32.22223663330078Z" stroke="none" stroke-width="0.0" stroke-dasharray="none" opacity="1.0" fill="none"/><g id="ProcessOnG1113" transform="matrix(1.0,0.0,0.0,1.0,0.0,4.861118316650391)"><text id="ProcessOnText1114" fill="#000000" font-size="18" x="19.0" y="18.45" font-family="微软雅黑" font-weight="bold" font-style="normal" text-decoration="none" family="微软雅黑" text-anchor="middle" size="18">A</text></g></g><g id="ProcessOnG1115"><path id="ProcessOnPath1116" d="M825.8333587646484 111.58336067199707C842.8555755615234 111.58336067199707 851.3666839599609 111.58336067199707 853.1528327793361 111.58336067199707" stroke="#323232" stroke-width="2.0" stroke-dasharray="none" fill="none" marker-end="url(#ProcessOnMarker1117)"/></g><g id="ProcessOnG1119" transform="matrix(1.0,0.0,0.0,1.0,181.66668701171875,859.5277900695801)" opacity="1.0"><path id="ProcessOnPath1120" d="M0.0 0.0L100.0 0.0L100.0 70.0L0.0 70.0Z" stroke="#323232" stroke-width="2.0" stroke-dasharray="none" opacity="1.0" fill="#ffffff"/><g id="ProcessOnG1121" transform="matrix(1.0,0.0,0.0,1.0,10.0,23.75)"><text id="ProcessOnText1122" fill="#000000" font-size="18" x="39.0" y="18.45" font-family="微软雅黑" font-weight="bold" font-style="normal" text-decoration="none" family="微软雅黑" text-anchor="middle" size="18">Topic</text></g></g><g id="ProcessOnG1123" transform="matrix(1.0,0.0,0.0,1.0,420.66668701171875,730.7500267028809)" opacity="1.0"><path id="ProcessOnPath1124" d="M0.0 0.0L156.4444580078125 0.0L156.4444580078125 42.4444580078125L0.0 42.4444580078125Z" stroke="#323232" stroke-width="2.0" stroke-dasharray="none" opacity="1.0" fill="#ffffff"/><g id="ProcessOnG1125" transform="matrix(1.0,0.0,0.0,1.0,10.0,9.97222900390625)"><text id="ProcessOnText1126" fill="#000000" font-size="18" x="67.22222900390625" y="18.45" font-family="微软雅黑" font-weight="bold" font-style="normal" text-decoration="none" family="微软雅黑" text-anchor="middle" size="18">Channel_1</text></g></g><g id="ProcessOnG1127"><path id="ProcessOnPath1128" d="M281.66668701171875 894.5277900695801C361.30896761940744 894.5277900695801 341.02440640403006 751.9722557067871 405.430619034219 751.9722557067871" stroke="#323232" stroke-width="2.0" stroke-dasharray="none" fill="none" marker-end="url(#ProcessOnMarker1129)"/></g><g id="ProcessOnG1131"><path id="ProcessOnPath1132" d="M281.66668701171875 894.5277900695801C337.26697125516876 894.5277900695801 365.06640276826874 894.9722557067871 405.430619034219 894.9722557067871" stroke="#323232" stroke-width="2.0" stroke-dasharray="none" fill="none" marker-end="url(#ProcessOnMarker1133)"/></g><g id="ProcessOnG1135"><path id="ProcessOnPath1136" d="M281.66668701171875 894.5277900695801C363.89215865854044 894.5277900695801 338.44121536489706 1045.972255706787 405.430619034219 1045.972255706787" stroke="#323232" stroke-width="2.0" stroke-dasharray="none" fill="none" marker-end="url(#ProcessOnMarker1137)"/></g><g id="ProcessOnG1139" transform="matrix(1.0,0.0,0.0,1.0,420.66668701171875,773.1944847106934)" opacity="1.0"><path id="ProcessOnPath1140" d="M0.0 0.0L39.111114501953125 0.0L39.111114501953125 42.5555419921875L0.0 42.5555419921875Z" stroke="#323232" stroke-width="2.0" stroke-dasharray="none" opacity="1.0" fill="#ffffff"/></g><g id="ProcessOnG1141" transform="matrix(1.0,0.0,0.0,1.0,459.7778015136719,773.1944847106934)" opacity="1.0"><path id="ProcessOnPath1142" d="M0.0 0.0L39.111114501953125 0.0L39.111114501953125 42.5555419921875L0.0 42.5555419921875Z" stroke="#323232" stroke-width="2.0" stroke-dasharray="none" opacity="1.0" fill="#ffffff"/></g><g id="ProcessOnG1143" transform="matrix(1.0,0.0,0.0,1.0,498.888916015625,773.1944847106934)" opacity="1.0"><path id="ProcessOnPath1144" d="M0.0 0.0L39.111114501953125 0.0L39.111114501953125 42.5555419921875L0.0 42.5555419921875Z" stroke="#323232" stroke-width="2.0" stroke-dasharray="none" opacity="1.0" fill="#ffffff"/></g><g id="ProcessOnG1145" transform="matrix(1.0,0.0,0.0,1.0,538.0000305175781,773.1944847106934)" opacity="1.0"><path id="ProcessOnPath1146" d="M0.0 0.0L39.111114501953125 0.0L39.111114501953125 42.5555419921875L0.0 42.5555419921875Z" stroke="#323232" stroke-width="2.0" stroke-dasharray="none" opacity="1.0" fill="#ffffff"/><g id="ProcessOnG1147" transform="matrix(1.0,0.0,0.0,1.0,10.0,10.02777099609375)"><text id="ProcessOnText1148" fill="#000000" font-size="18" x="8.555557250976562" y="18.45" font-family="微软雅黑" font-weight="bold" font-style="normal" text-decoration="none" family="微软雅黑" text-anchor="middle" size="18">B</text></g></g><g id="ProcessOnG1149"><path id="ProcessOnPath1150" d="M166.43061903421895 894.5277900695801C137.75556640624995 894.5277900695801 115.80000610351567 894.5277900695801 71.88888549804688 894.5277900695801" stroke="#323232" stroke-width="2.0" stroke-dasharray="none" fill="none" marker-start="url(#ProcessOnMarker1151)"/></g><g id="ProcessOnG1153" transform="matrix(1.0,0.0,0.0,1.0,98.88888549804688,894.5277900695801)" opacity="1.0"><path id="ProcessOnPath1154" d="M0.0 0.0L40.0 0.0L40.0 32.22223663330078L0.0 32.22223663330078Z" stroke="none" stroke-width="0.0" stroke-dasharray="none" opacity="1.0" fill="none"/><g id="ProcessOnG1155" transform="matrix(1.0,0.0,0.0,1.0,0.0,4.861118316650391)"><text id="ProcessOnText1156" fill="#000000" font-size="18" x="19.0" y="18.45" font-family="微软雅黑" font-weight="bold" font-style="normal" text-decoration="none" family="微软雅黑" text-anchor="middle" size="18">B</text></g></g><g id="ProcessOnG1157" transform="matrix(1.0,0.0,0.0,1.0,359.66668701171875,783.5277900695801)" opacity="1.0"><path id="ProcessOnPath1158" d="M0.0 0.0L40.0 0.0L40.0 32.22223663330078L0.0 32.22223663330078Z" stroke="none" stroke-width="0.0" stroke-dasharray="none" opacity="1.0" fill="none"/><g id="ProcessOnG1159" transform="matrix(1.0,0.0,0.0,1.0,0.0,4.861118316650391)"><text id="ProcessOnText1160" fill="#000000" font-size="18" x="19.0" y="18.45" font-family="微软雅黑" font-weight="bold" font-style="normal" text-decoration="none" family="微软雅黑" text-anchor="middle" size="18">B</text></g></g><g id="ProcessOnG1161" transform="matrix(1.0,0.0,0.0,1.0,359.66668701171875,862.3055534362793)" opacity="1.0"><path id="ProcessOnPath1162" d="M0.0 0.0L40.0 0.0L40.0 32.22223663330078L0.0 32.22223663330078Z" stroke="none" stroke-width="0.0" stroke-dasharray="none" opacity="1.0" fill="none"/><g id="ProcessOnG1163" transform="matrix(1.0,0.0,0.0,1.0,0.0,4.861118316650391)"><text id="ProcessOnText1164" fill="#000000" font-size="18" x="19.0" y="18.45" font-family="微软雅黑" font-weight="bold" font-style="normal" text-decoration="none" family="微软雅黑" text-anchor="middle" size="18">B</text></g></g><g id="ProcessOnG1165" transform="matrix(1.0,0.0,0.0,1.0,359.66668701171875,974.7500267028809)" opacity="1.0"><path id="ProcessOnPath1166" d="M0.0 0.0L40.0 0.0L40.0 32.22223663330078L0.0 32.22223663330078Z" stroke="none" stroke-width="0.0" stroke-dasharray="none" opacity="1.0" fill="none"/><g id="ProcessOnG1167" transform="matrix(1.0,0.0,0.0,1.0,0.0,4.861118316650391)"><text id="ProcessOnText1168" fill="#000000" font-size="18" x="19.0" y="18.45" font-family="微软雅黑" font-weight="bold" font-style="normal" text-decoration="none" family="微软雅黑" text-anchor="middle" size="18">B</text></g></g><g id="ProcessOnG1169" transform="matrix(1.0,0.0,0.0,1.0,420.66668701171875,873.7500267028809)" opacity="1.0"><path id="ProcessOnPath1170" d="M0.0 0.0L156.4444580078125 0.0L156.4444580078125 42.4444580078125L0.0 42.4444580078125Z" stroke="#323232" stroke-width="2.0" stroke-dasharray="none" opacity="1.0" fill="#ffffff"/><g id="ProcessOnG1171" transform="matrix(1.0,0.0,0.0,1.0,10.0,9.97222900390625)"><text id="ProcessOnText1172" fill="#000000" font-size="18" x="67.22222900390625" y="18.45" font-family="微软雅黑" font-weight="bold" font-style="normal" text-decoration="none" family="微软雅黑" text-anchor="middle" size="18">Channel_1</text></g></g><g id="ProcessOnG1173" transform="matrix(1.0,0.0,0.0,1.0,420.66668701171875,916.1944847106934)" opacity="1.0"><path id="ProcessOnPath1174" d="M0.0 0.0L39.111114501953125 0.0L39.111114501953125 42.5555419921875L0.0 42.5555419921875Z" stroke="#323232" stroke-width="2.0" stroke-dasharray="none" opacity="1.0" fill="#ffffff"/></g><g id="ProcessOnG1175" transform="matrix(1.0,0.0,0.0,1.0,459.7778015136719,916.1944847106934)" opacity="1.0"><path id="ProcessOnPath1176" d="M0.0 0.0L39.111114501953125 0.0L39.111114501953125 42.5555419921875L0.0 42.5555419921875Z" stroke="#323232" stroke-width="2.0" stroke-dasharray="none" opacity="1.0" fill="#ffffff"/></g><g id="ProcessOnG1177" transform="matrix(1.0,0.0,0.0,1.0,498.888916015625,916.1944847106934)" opacity="1.0"><path id="ProcessOnPath1178" d="M0.0 0.0L39.111114501953125 0.0L39.111114501953125 42.5555419921875L0.0 42.5555419921875Z" stroke="#323232" stroke-width="2.0" stroke-dasharray="none" opacity="1.0" fill="#ffffff"/><g id="ProcessOnG1179" transform="matrix(1.0,0.0,0.0,1.0,10.0,10.02777099609375)"><text id="ProcessOnText1180" fill="#000000" font-size="18" x="8.555557250976562" y="18.45" font-family="微软雅黑" font-weight="bold" font-style="normal" text-decoration="none" family="微软雅黑" text-anchor="middle" size="18">B</text></g></g><g id="ProcessOnG1181" transform="matrix(1.0,0.0,0.0,1.0,538.0000305175781,916.1944847106934)" opacity="1.0"><path id="ProcessOnPath1182" d="M0.0 0.0L39.111114501953125 0.0L39.111114501953125 42.5555419921875L0.0 42.5555419921875Z" stroke="#323232" stroke-width="2.0" stroke-dasharray="none" opacity="1.0" fill="#ffffff"/><g id="ProcessOnG1183" transform="matrix(1.0,0.0,0.0,1.0,10.0,10.02777099609375)"><text id="ProcessOnText1184" fill="#000000" font-size="18" x="8.555557250976562" y="18.45" font-family="微软雅黑" font-weight="bold" font-style="normal" text-decoration="none" family="微软雅黑" text-anchor="middle" size="18">A</text></g></g><g id="ProcessOnG1185" transform="matrix(1.0,0.0,0.0,1.0,420.66668701171875,1024.7500267028809)" opacity="1.0"><path id="ProcessOnPath1186" d="M0.0 0.0L156.4444580078125 0.0L156.4444580078125 42.4444580078125L0.0 42.4444580078125Z" stroke="#323232" stroke-width="2.0" stroke-dasharray="none" opacity="1.0" fill="#ffffff"/><g id="ProcessOnG1187" transform="matrix(1.0,0.0,0.0,1.0,10.0,9.97222900390625)"><text id="ProcessOnText1188" fill="#000000" font-size="18" x="67.22222900390625" y="18.45" font-family="微软雅黑" font-weight="bold" font-style="normal" text-decoration="none" family="微软雅黑" text-anchor="middle" size="18">Channel_1</text></g></g><g id="ProcessOnG1189" transform="matrix(1.0,0.0,0.0,1.0,420.66668701171875,1067.1944847106934)" opacity="1.0"><path id="ProcessOnPath1190" d="M0.0 0.0L39.111114501953125 0.0L39.111114501953125 42.5555419921875L0.0 42.5555419921875Z" stroke="#323232" stroke-width="2.0" stroke-dasharray="none" opacity="1.0" fill="#ffffff"/></g><g id="ProcessOnG1191" transform="matrix(1.0,0.0,0.0,1.0,459.7778015136719,1067.1944847106934)" opacity="1.0"><path id="ProcessOnPath1192" d="M0.0 0.0L39.111114501953125 0.0L39.111114501953125 42.5555419921875L0.0 42.5555419921875Z" stroke="#323232" stroke-width="2.0" stroke-dasharray="none" opacity="1.0" fill="#ffffff"/></g><g id="ProcessOnG1193" transform="matrix(1.0,0.0,0.0,1.0,498.888916015625,1067.1944847106934)" opacity="1.0"><path id="ProcessOnPath1194" d="M0.0 0.0L39.111114501953125 0.0L39.111114501953125 42.5555419921875L0.0 42.5555419921875Z" stroke="#323232" stroke-width="2.0" stroke-dasharray="none" opacity="1.0" fill="#ffffff"/><g id="ProcessOnG1195" transform="matrix(1.0,0.0,0.0,1.0,10.0,10.02777099609375)"><text id="ProcessOnText1196" fill="#000000" font-size="18" x="8.555557250976562" y="18.45" font-family="微软雅黑" font-weight="bold" font-style="normal" text-decoration="none" family="微软雅黑" text-anchor="middle" size="18">B</text></g></g><g id="ProcessOnG1197" transform="matrix(1.0,0.0,0.0,1.0,538.0000305175781,1067.1944847106934)" opacity="1.0"><path id="ProcessOnPath1198" d="M0.0 0.0L39.111114501953125 0.0L39.111114501953125 42.5555419921875L0.0 42.5555419921875Z" stroke="#323232" stroke-width="2.0" stroke-dasharray="none" opacity="1.0" fill="#ffffff"/><g id="ProcessOnG1199" transform="matrix(1.0,0.0,0.0,1.0,10.0,10.02777099609375)"><text id="ProcessOnText1200" fill="#000000" font-size="18" x="8.555557250976562" y="18.45" font-family="微软雅黑" font-weight="bold" font-style="normal" text-decoration="none" family="微软雅黑" text-anchor="middle" size="18">A</text></g></g><g id="ProcessOnG1201" transform="matrix(1.0,0.0,0.0,1.0,675.6666870117188,827.3611373901367)" opacity="1.0"><path id="ProcessOnPath1202" d="M0.0 0.0L156.4444580078125 0.0L156.4444580078125 42.4444580078125L0.0 42.4444580078125Z" stroke="#323232" stroke-width="2.0" stroke-dasharray="none" opacity="1.0" fill="#ffffff"/><g id="ProcessOnG1203" transform="matrix(1.0,0.0,0.0,1.0,10.0,9.97222900390625)"><text id="ProcessOnText1204" fill="#000000" font-size="18" x="67.22222900390625" y="18.45" font-family="微软雅黑" font-weight="bold" font-style="normal" text-decoration="none" family="微软雅黑" text-anchor="middle" size="18">Consumer_3</text></g></g><g id="ProcessOnG1205" transform="matrix(1.0,0.0,0.0,1.0,675.6666870117188,730.8056106567383)" opacity="1.0"><path id="ProcessOnPath1206" d="M0.0 0.0L156.4444580078125 0.0L156.4444580078125 42.4444580078125L0.0 42.4444580078125Z" stroke="#323232" stroke-width="2.0" stroke-dasharray="none" opacity="1.0" fill="#ffffff"/><g id="ProcessOnG1207" transform="matrix(1.0,0.0,0.0,1.0,10.0,9.97222900390625)"><text id="ProcessOnText1208" fill="#000000" font-size="18" x="67.22222900390625" y="18.45" font-family="微软雅黑" font-weight="bold" font-style="normal" text-decoration="none" family="微软雅黑" text-anchor="middle" size="18">Consumer_2</text></g></g><g id="ProcessOnG1209" transform="matrix(1.0,0.0,0.0,1.0,675.6666870117188,633.0278053283691)" opacity="1.0"><path id="ProcessOnPath1210" d="M0.0 0.0L156.4444580078125 0.0L156.4444580078125 42.4444580078125L0.0 42.4444580078125Z" stroke="#323232" stroke-width="2.0" stroke-dasharray="none" opacity="1.0" fill="#ffffff"/><g id="ProcessOnG1211" transform="matrix(1.0,0.0,0.0,1.0,10.0,9.97222900390625)"><text id="ProcessOnText1212" fill="#000000" font-size="18" x="67.22222900390625" y="18.45" font-family="微软雅黑" font-weight="bold" font-style="normal" text-decoration="none" family="微软雅黑" text-anchor="middle" size="18">Consumer_1</text></g></g><g id="ProcessOnG1213"><path id="ProcessOnPath1214" d="M577.1111450195312 751.9722557067871C632.6273803497377 751.9722557067871 620.1504516815123 654.2500343322754 660.4306190342189 654.2500343322754" stroke="#323232" stroke-width="2.0" stroke-dasharray="none" fill="none" marker-end="url(#ProcessOnMarker1215)"/></g><g id="ProcessOnG1217"><path id="ProcessOnPath1218" d="M577.1111450195312 751.9722557067871C616.5333680861211 751.9722557067871 636.2444639451289 752.0278396606445 660.4306190342189 752.0278396606445" stroke="#323232" stroke-width="2.0" stroke-dasharray="none" fill="none" marker-end="url(#ProcessOnMarker1219)"/></g><g id="ProcessOnG1221"><path id="ProcessOnPath1222" d="M577.1111450195312 751.9722557067871C632.3153500269023 751.9722557067871 620.4624820043477 848.583366394043 660.4306190342189 848.583366394043" stroke="#323232" stroke-width="2.0" stroke-dasharray="none" fill="none" marker-end="url(#ProcessOnMarker1223)"/></g><g id="ProcessOnG1225" transform="matrix(1.0,0.0,0.0,1.0,832.1111450195312,643.2500267028809)" opacity="1.0"><path id="ProcessOnPath1226" d="M0.0 0.0L40.0 0.0L40.0 32.22223663330078L0.0 32.22223663330078Z" stroke="none" stroke-width="0.0" stroke-dasharray="none" opacity="1.0" fill="none"/><g id="ProcessOnG1227" transform="matrix(1.0,0.0,0.0,1.0,0.0,4.861118316650391)"><text id="ProcessOnText1228" fill="#000000" font-size="18" x="19.0" y="18.45" font-family="微软雅黑" font-weight="bold" font-style="normal" text-decoration="none" family="微软雅黑" text-anchor="middle" size="18">A</text></g></g><g id="ProcessOnG1229" transform="matrix(1.0,0.0,0.0,1.0,630.1111450195312,718.2500267028809)" opacity="1.0"><path id="ProcessOnPath1230" d="M0.0 0.0L40.0 0.0L40.0 32.22223663330078L0.0 32.22223663330078Z" stroke="none" stroke-width="0.0" stroke-dasharray="none" opacity="1.0" fill="none"/><g id="ProcessOnG1231" transform="matrix(1.0,0.0,0.0,1.0,0.0,4.861118316650391)"><text id="ProcessOnText1232" fill="#000000" font-size="18" x="19.0" y="18.45" font-family="微软雅黑" font-weight="bold" font-style="normal" text-decoration="none" family="微软雅黑" text-anchor="middle" size="18">B</text></g></g><g id="ProcessOnG1233"><path id="ProcessOnPath1234" d="M832.1111450195312 752.0278396606445C848.9555908203124 752.0278396606445 857.3778137207032 752.0278396606445 858.9861915439845 752.0278396606445" stroke="#323232" stroke-width="2.0" stroke-dasharray="none" fill="none" marker-end="url(#ProcessOnMarker1235)"/></g></g></g></svg>